{
  "accessors": [
    {
      "bufferView": 1,
      "componentType": 5126,
      "count": 65532,
      "max": [
        24.235544204711914,
        24.235544204711914,
        24.235544204711914
      ],
      "min": [
        -17.177825927734375,
        -18.00472640991211,
        -24.235544204711914
      ],
      "type": "VEC3"
    },
    {
      "bufferView": 1,
      "byteOffset": 786384,
      "componentType": 5126,
      "count": 65532,
      "max": [
        1.0,
        1.0,
        1.0
      ],
      "min": [
        -0.6850719451904297,
        -0.999487042427063,
        -1.0
      ],
      "type": "VEC3"
    },
    {
      "bufferView": 2,
      "componentType": 5126,
      "count": 65532,
      "max": [
        0.9921568632125854,
        0.9921568632125854,
        0.9490196108818054,
        1.0
      ],
      "min": [
        0.8549019694328308,
        0.13333334028720856,
        0.13333334028720856,
        1.0
      ],
      "type": "VEC4"
    },
    {
      "bufferView": 0,
      "componentType": 5125,
      "count": 390618,
      "type": "SCALAR"
    },
    {
      "bufferView": 1,
      "byteOffset": 1572768,
      "componentType": 5126,
      "count": 36278,
      "max": [
        17.227935791015625,
        18.00472640991211,
        18.00472640991211
      ],
      "min": [
        -24.235544204711914,
        -24.510303497314453,
        -18.00472640991211
      ],
      "type": "VEC3"
    },
    {
      "bufferView": 1,
      "byteOffset": 2008104,
      "componentType": 5126,
      "count": 36278,
      "max": [
        0.9999526143074036,
        0.9999991059303284,
        0.9999156594276428
      ],
      "min": [
        -1.0,
        -0.9999310374259949,
        -0.9999594688415527
      ],
      "type": "VEC3"
    },
    {
      "bufferView": 2,
      "byteOffset": 1048512,
      "componentType": 5126,
      "count": 36278,
      "max": [
        1.0,
        1.0,
        1.0,
        1.0
      ],
      "min": [
        0.08235294371843338,
        0.06666667014360428,
        0.019607843831181526,
        1.0
      ],
      "type": "VEC4"
    },
    {
      "bufferView": 0,
      "byteOffset": 1562472,
      "componentType": 5125,
      "count": 199206,
      "type": "SCALAR"
    }
  ],
  "asset": {
    "extras": {
      "author": "itsjustmelon123459 (https://sketchfab.com/itsjustmelon123459)",
      "license": "CC-BY-4.0 (http://creativecommons.org/licenses/by/4.0/)",
      "source": "https://sketchfab.com/3d-models/spider-pacman-f24f30b161944913aa2de868fd21bb86",
      "title": "Spider pacman"
    },
    "generator": "Sketchfab-15.4.0",
    "version": "2.0"
  },
  "bufferViews": [
    {
      "buffer": 0,
      "byteLength": 2359296,
      "name": "floatBufferViews",
      "target": 34963
    },
    {
      "buffer": 0,
      "byteLength": 2443440,
      "byteOffset": 2359296,
      "byteStride": 12,
      "name": "floatBufferViews",
      "target": 34962
    },
    {
      "buffer": 0,
      "byteLength": 1628960,
      "byteOffset": 4802736,
      "byteStride": 16,
      "name": "floatBufferViews",
      "target": 34962
    }
  ],
  "buffers": [
    {
      "byteLength": 6431696,
      "uri": "scene.bin"
    }
  ],
  "materials": [
    {
      "doubleSided": true,
      "name": "Scene_-_Root",
      "pbrMetallicRoughness": {
        "metallicFactor": 0.0,
        "roughnessFactor": 0.6
      }
    }
  ],
  "meshes": [
    {
      "name": "Object_0",
      "primitives": [
        {
          "attributes": {
            "COLOR_0": 2,
            "NORMAL": 1,
            "POSITION": 0
          },
          "indices": 3,
          "material": 0,
          "mode": 4
        }
      ]
    },
    {
      "name": "Object_1",
      "primitives": [
        {
          "attributes": {
            "COLOR_0": 6,
            "NORMAL": 5,
            "POSITION": 4
          },
          "indices": 7,
          "material": 0,
          "mode": 4
        }
      ]
    }
  ],
  "nodes": [
    {
      "children": [
        1
      ],
      "matrix": [
        0.0845576599240303,
        0.0,
        0.0,
        0.0,
        0.0,
        1.8775572191216462e-17,
        -0.0845576599240303,
        0.0,
        0.0,
        0.0845576599240303,
        1.8775572191216462e-17,
        0.0,
        0.0,
        0.0,
        0.0,
        1.0
      ],
      "name": "Sketchfab_model"
    },
    {
      "children": [
        2,
        3
      ],
      "name": "Geode"
    },
    {
      "mesh": 0,
      "name": "Object_2"
    },
    {
      "mesh": 1,
      "name": "Object_3"
    }
  ],
  "scene": 0,
  "scenes": [
    {
      "name": "Sketchfab_Scene",
      "nodes": [
        0
      ]
    }
  ]
}
